<svg width="70" height="75" viewBox="0 0 70 75" fill="none" xmlns="http://www.w3.org/2000/svg">
<g clip-path="url(#clip0_0_194)">
<path d="M40.3799 62.0896C40.2906 62.0896 40.246 62.1354 40.246 62.2271V62.3645C40.246 62.4562 40.2906 62.502 40.3799 62.502H58.0484C58.1823 62.502 58.2492 62.4562 58.2492 62.3645V62.2271C58.2492 62.1354 58.1823 62.0896 58.0484 62.0896H55.9737C54.5906 62.0896 53.609 61.8375 53.0289 61.3335C52.4935 60.8294 52.0473 60.0047 51.6904 58.8591C49.4595 51.8022 47.3848 44.7453 45.4663 37.6886C43.5477 30.6317 41.6515 23.529 39.7776 16.3805C39.5098 15.4182 39.5098 14.6164 39.7776 13.9748C40.0453 13.3333 40.6699 13.0125 41.6515 13.0125H45.6671C45.8009 13.0125 45.8678 12.9438 45.8678 12.8063V12.7376C45.8678 12.6459 45.8009 12.6001 45.6671 12.6001H18.8966C18.718 12.6001 18.6288 12.6459 18.6288 12.7376V12.8063C18.6288 12.9438 18.718 13.0125 18.8966 13.0125H23.8491C24.7414 13.0125 25.1876 13.4249 25.1876 14.2498C25.1876 14.6164 25.143 14.983 25.0537 15.3495C24.9645 15.6702 24.8083 16.1514 24.5853 16.7929C24.1837 17.8469 23.6929 19.1071 23.1129 20.5735C22.5775 21.9939 22.0197 23.4603 21.4397 24.9725C20.8597 26.4847 20.3019 27.951 19.7665 29.3715C19.2312 30.7921 18.7626 32.0294 18.3611 33.0832C17.5134 35.3286 16.6434 37.5282 15.751 39.6818C14.9032 41.8356 14.1447 43.8976 13.4755 45.868C12.8062 47.7927 12.2485 49.6255 11.8023 51.3669C11.4008 53.0624 11.2 54.6204 11.2 56.0409C11.2 58.4696 11.7801 60.2337 12.9401 61.3335C14.1002 62.4333 15.5502 62.9832 17.2903 62.9832C18.718 62.9832 20.012 62.5937 21.172 61.8146C22.3321 60.9898 23.4252 59.9818 24.4515 58.7903C25.5222 57.5531 26.5261 56.2471 27.4631 54.8723C28.4447 53.4519 29.4485 52.1459 30.4748 50.9544C31.5009 49.7172 32.5718 48.7092 33.6872 47.9301C34.8473 47.1053 36.0966 46.6929 37.4351 46.6929C39.5767 46.6929 41.2276 47.3344 42.3876 48.6175C43.5477 49.9005 44.3955 51.3669 44.9308 53.0166C45.2878 54.0247 45.5555 54.9869 45.734 55.9034C45.9571 56.8199 46.1802 57.6447 46.4032 58.3779C46.4925 58.7903 46.5148 59.2257 46.4701 59.6839C46.4701 60.1422 46.3363 60.5545 46.0686 60.9211C45.8455 61.2418 45.444 61.5168 44.8639 61.7459C44.3285 61.975 43.5923 62.0896 42.6554 62.0896H40.3799ZM22.5775 34.183C25.1207 34.183 26.9723 34.7787 28.1323 35.9702C29.2924 37.1158 29.8724 38.9945 29.8724 41.6065V48.755C28.8908 49.4881 27.9316 50.2671 26.9946 51.0919C26.0577 51.9168 25.143 52.6729 24.2506 53.3602C23.3583 54.0476 22.4882 54.6203 21.6406 55.0785C20.7928 55.491 19.9451 55.6972 19.0973 55.6972C17.848 55.6972 16.7103 55.3077 15.684 54.5288C14.6579 53.7039 14.1447 52.3521 14.1447 50.4733C14.1447 49.3277 14.3233 48.0218 14.6801 46.5554C15.0817 45.0432 15.5279 43.531 16.0186 42.0189C16.5541 40.5067 17.0895 39.0632 17.625 37.6886C18.1603 36.3138 18.6065 35.1453 18.9635 34.183H22.5775ZM25.1876 17.549C25.723 16.1743 26.3923 15.2808 27.1953 14.8684C28.0431 14.456 28.9355 14.2269 29.8724 14.181V26.141C29.8724 28.8446 29.3147 30.7921 28.1993 31.9835C27.0838 33.1749 25.2099 33.7706 22.5775 33.7706H19.0973C19.7665 31.9835 20.4359 30.1964 21.1051 28.4092C21.7744 26.5764 22.399 24.9038 22.979 23.3915C23.559 21.8793 24.0276 20.5964 24.3844 19.5424C24.7861 18.4884 25.0537 17.824 25.1876 17.549ZM41.9192 41.9501C42.0084 42.2709 42.0977 42.6604 42.1868 43.1187C42.2761 43.5768 42.3207 44.0121 42.3207 44.4246C42.3654 44.837 42.343 45.2265 42.2538 45.5931C42.2092 45.9139 42.0753 46.143 41.8522 46.2805C41.763 46.3263 41.6069 46.3492 41.3838 46.3492C40.9376 46.3492 40.4022 46.2575 39.7776 46.0742C39.1975 45.8451 38.3944 45.7306 37.3682 45.7306C36.1189 45.7306 34.9142 46.0055 33.7541 46.5554C32.5941 47.0595 31.434 47.701 30.274 48.48V41.6065C30.274 38.9486 30.8094 37.047 31.8802 35.9014C32.9957 34.7558 34.8696 34.183 37.502 34.183H39.8445C40.2013 35.4661 40.536 36.7721 40.8483 38.1009C41.2053 39.384 41.5622 40.6671 41.9192 41.9501ZM37.502 33.7706C34.9588 33.7706 33.1072 33.1519 31.9472 31.9148C30.8317 30.6775 30.274 28.7529 30.274 26.141V14.181C31.8357 14.2269 32.9957 14.5706 33.7541 15.2121C34.5126 15.8535 35.0481 16.7242 35.3604 17.824C35.8511 19.5653 36.4759 21.8335 37.2344 24.6288C37.9928 27.424 38.8182 30.4713 39.7105 33.7706H37.502Z" fill="#212529"/>
</g>
<defs>
<clipPath id="clip0_0_194">
<rect width="70" height="74.375" fill="white"/>
</clipPath>
</defs>
</svg>
